<?xml version="1.0" encoding="UTF-8"?>
<svg version="1.1" xmlns="http://www.w3.org/2000/svg" width="500" height="500">
<path d="M0 0 C26.68519751 20.37691545 43.01098013 49.02238256 48.09375 82.15063477 C52.5558 118.0661533 42.19275663 155.55422302 20.625 184.59765625 C20.04492188 185.32339844 19.46484375 186.04914063 18.8671875 186.796875 C17.36216638 189.64378558 17.96950664 190.80552712 18.75 193.91015625 C20.03026779 208.47902991 18.35929902 220.39813172 8.69140625 231.9453125 C5.3974476 235.27903725 1.84829592 237.66666314 -2.25 239.91015625 C-2.95253906 240.32394531 -3.65507812 240.73773438 -4.37890625 241.1640625 C-13.39721209 245.66537341 -25.2037035 245.40192809 -34.828125 243.02734375 C-47.28120702 238.20576584 -54.28392677 230.45349983 -60.34765625 218.80078125 C-64.02323405 209.97939454 -63.62195258 197.83851399 -60.625 188.84765625 C-55.92028192 177.99565845 -47.3581608 169.13074858 -36.390625 164.6015625 C-32.74763702 163.42490397 -29.83260899 162.86630396 -25.98046875 163.15625 C-21.9498918 163.37399892 -19.07963472 163.23579904 -15.25 161.91015625 C-11.06926342 157.59896127 -9.26459355 151.44113126 -7.25 145.91015625 C-6.77175781 144.74097656 -6.29351562 143.57179687 -5.80078125 142.3671875 C5.72268826 112.84911096 5.68453335 79.43729598 -6.95043945 50.24682617 C-16.02907076 30.47952679 -30.17314807 14.25607013 -50.375 5.47265625 C-67.04904319 -0.5135986 -84.2502523 1.24992152 -100.26171875 8.41796875 C-111.56981386 14.06462539 -125.0801383 22.1553637 -132.25 32.91015625 C-132.91 32.91015625 -133.57 32.91015625 -134.25 32.91015625 C-134.62511719 33.75707031 -134.62511719 33.75707031 -135.0078125 34.62109375 C-136.43883878 37.25814217 -138.1591557 39.26687437 -140.125 41.53515625 C-145.40747215 47.8860896 -149.92359002 54.67807759 -154.453125 61.578125 C-154.92790283 62.29726074 -155.40268066 63.01639648 -155.8918457 63.75732422 C-157.26908596 65.8831885 -157.26908596 65.8831885 -158.41088867 68.08251953 C-161.56067637 73.8380346 -165.06796172 75.95807353 -171.0625 78.41015625 C-171.85076172 78.755625 -172.63902344 79.10109375 -173.45117188 79.45703125 C-175.37479446 80.2964302 -177.31120506 81.10642208 -179.25 81.91015625 C-177.89875603 74.42395403 -175.34422434 68.03370874 -172.125 61.16015625 C-171.6307251 60.09684082 -171.1364502 59.03352539 -170.62719727 57.93798828 C-166.9834236 50.21571613 -163.09633727 42.95512144 -158.25 35.91015625 C-157.86489258 35.34151855 -157.47978516 34.77288086 -157.08300781 34.18701172 C-151.67462824 26.22884496 -145.91121233 18.87749047 -139.25 11.91015625 C-138.651875 11.24886719 -138.05375 10.58757812 -137.4375 9.90625 C-101.23484671 -28.71511504 -41.59515519 -30.59663685 0 0 Z " fill="#38B6FF" transform="translate(298.25,101.08984375)"/>
<path d="M0 0 C5.3946069 4.02960788 8.95406746 8.65859575 12.75 14.1875 C13.66579834 15.51382446 13.66579834 15.51382446 14.60009766 16.86694336 C26.87017069 34.89857391 37.06760233 54.63493009 42 76 C42.33644531 77.42119141 42.33644531 77.42119141 42.6796875 78.87109375 C46.90598807 100.66838368 44.79782612 124.02119254 35 144 C34.49726563 145.04414063 33.99453125 146.08828125 33.4765625 147.1640625 C27.60584206 158.7125689 20.22953562 168.95407679 10 177 C9.2884375 177.62003906 8.576875 178.24007812 7.84375 178.87890625 C-17.20735682 200.21409889 -49.09789187 206.64011563 -81.18994141 204.87988281 C-113.57858625 202.21128284 -143.50458368 184.09182312 -164.57421875 159.953125 C-174.17899209 148.26035745 -182.91980235 135.70498966 -188.97241211 121.75952148 C-190.86891506 117.32991314 -190.86891506 117.32991314 -194.69921875 114.58984375 C-196.17841797 114.26693359 -196.17841797 114.26693359 -197.6875 113.9375 C-207.41538835 111.23596706 -214.99761008 104.67064986 -220.18359375 96.02734375 C-225.59345557 85.7426614 -226.86844674 74.05766488 -223.9375 62.75 C-220.30848064 52.63578863 -214.16515068 44.64009273 -205 39 C-192.63670323 33.29130995 -180.89131239 32.35715186 -168 37 C-158.01311363 41.97370626 -149.82421928 49.33428752 -146 60 C-142.66644067 70.66738986 -141.72843709 80.96243143 -146.55078125 91.3359375 C-147.63108919 93.34754538 -148.76070897 95.3340018 -149.953125 97.28125 C-151.28266382 100.00184072 -151.28266382 100.00184072 -150.375 103.00390625 C-139.30489486 127.12541376 -114.24910017 147.2561225 -90 157 C-63.90565033 166.46805422 -36.66175107 168.69420881 -10.95703125 157.01953125 C3.73487424 149.83831774 14.71399905 137.61189194 20.25 122.25 C23.14641439 112.87285842 24.70803994 102.82020619 24 93 C23.88011719 91.33324219 23.88011719 91.33324219 23.7578125 89.6328125 C21.66181524 68.3734117 14.43191532 46.73194712 3.1081543 28.60571289 C-2.27081135 19.96592902 -3.04937758 14.06978121 -1 4 C-0.68497502 2.66222268 -0.36106477 1.32609243 0 0 Z " fill="#5271FF" transform="translate(355,202)"/>
<path d="M0 0 C7.80730634 6.78959415 13.47891241 15.53687472 15.09765625 25.82421875 C16.00267706 40.07829656 13.19861834 49.45718502 4.91015625 60.82421875 C4.31203125 61.48421875 3.71390625 62.14421875 3.09765625 62.82421875 C2.43765625 62.82421875 1.77765625 62.82421875 1.09765625 62.82421875 C1.09765625 63.48421875 1.09765625 64.14421875 1.09765625 64.82421875 C-8.196481 72.06195253 -19.25846521 75.01338081 -30.90234375 73.82421875 C-43.17953523 71.75793126 -52.55363345 65.85248062 -59.90234375 55.82421875 C-61.29510497 53.51902194 -62.60089029 51.18346148 -63.90234375 48.82421875 C-97.66922698 47.77988216 -128.77520668 59.59550936 -153.62353516 82.62036133 C-170.81413422 98.99329705 -182.6362994 121.86518607 -183.27734375 145.82421875 C-183.01816477 156.32096764 -180.91108154 166.54810868 -175.90234375 175.82421875 C-175.38220703 176.80068359 -175.38220703 176.80068359 -174.8515625 177.796875 C-169.23927639 187.4978369 -161.4324045 195.04563219 -151.90234375 200.82421875 C-150.8246875 201.48292969 -149.74703125 202.14164063 -148.63671875 202.8203125 C-128.40267094 214.65384226 -103.72124701 218.90502673 -80.52685547 218.94238281 C-68.49479371 218.97038761 -61.63759523 221.48258345 -52.90234375 229.82421875 C-53.23234375 230.48421875 -53.56234375 231.14421875 -53.90234375 231.82421875 C-57.49921759 232.72256418 -61.22327082 233.0229165 -64.90234375 233.44921875 C-66.02068604 233.57965576 -67.13902832 233.71009277 -68.29125977 233.84448242 C-104.52984841 237.73071932 -145.4500305 234.08980391 -174.890625 210.421875 C-177.29683908 208.27945328 -179.62039345 206.09787105 -181.90234375 203.82421875 C-182.72992188 203.00953125 -183.5575 202.19484375 -184.41015625 201.35546875 C-204.31972126 181.1338416 -212.43769461 155.29298752 -213.15234375 127.32421875 C-212.82514499 99.98824947 -203.22732537 72.30931608 -184.90234375 51.82421875 C-184.19464844 50.99792969 -183.48695313 50.17164063 -182.7578125 49.3203125 C-160.49149504 23.77838967 -128.53675503 8.89065203 -94.90234375 5.82421875 C-91.89061898 5.71665563 -88.88432074 5.73380933 -85.87109375 5.75390625 C-84.15623983 5.74532661 -82.44139452 5.73485241 -80.7265625 5.72265625 C-78.06004096 5.70595672 -75.3954815 5.69928393 -72.72900391 5.72460938 C-61.0768612 6.31694997 -61.0768612 6.31694997 -51.0390625 1.44921875 C-49.98369883 0.24942723 -48.93670792 -0.95783916 -47.90234375 -2.17578125 C-44.890625 -3.91796875 -44.890625 -3.91796875 -42.21484375 -5.05078125 C-40.87873047 -5.63472656 -40.87873047 -5.63472656 -39.515625 -6.23046875 C-26.14809641 -11.06595742 -11.39108357 -8.20736874 0 0 Z " fill="#71DDFF" transform="translate(272.90234375,166.17578125)"/>
</svg>
